<svg xmlns="http://www.w3.org/2000/svg" viewBox="0 0 192 192">
  <defs>
    <linearGradient id="grad" x1="0%" y1="0%" x2="100%" y2="100%">
      <stop offset="0%" style="stop-color:#FCB9B2"/>
      <stop offset="50%" style="stop-color:#B8B8DC"/>
      <stop offset="100%" style="stop-color:#B5EAD7"/>
    </linearGradient>
  </defs>
  <!-- Background circle -->
  <circle cx="96" cy="96" r="90" fill="url(#grad)"/>
  <!-- Baby bottle icon -->
  <g transform="translate(48, 30) scale(4)">
    <path fill="#5D4E37" d="M12 2c-.55 0-1 .45-1 1v1H9c-.55 0-1 .45-1 1v2c0 .55.45 1 1 1h1v1.5C10 10.88 8 13.22 8 16v4c0 1.1.9 2 2 2h4c1.1 0 2-.9 2-2v-4c0-2.78-2-5.12-2-6.5V6h1c.55 0 1-.45 1-1V3c0-.55-.45-1-1-1h-2V2c0-.55-.45-1-1-1zm-2 14h4v4h-4v-4z"/>
  </g>
  <!-- Heart accent -->
  <path fill="#FCB9B2" d="M140 130c-6 0-12 6-15 10-3-4-9-10-15-10-10 0-18 8-18 18 0 16 33 34 33 34s33-18 33-34c0-10-8-18-18-18z"/>
</svg>
